<?xml version="1.0" encoding="UTF-8"?>
<svg id="Layer_1" data-name="Layer 1" xmlns="http://www.w3.org/2000/svg" viewBox="0 0 512 169" fill="currentColor">
  <path d="M21.02,67c2.78-4.58,6.48-8.29,11.13-11.13,4.65-2.84,9.74-4.4,15.29-4.68v-16.22c-8.6.28-16.44,2.57-23.51,6.87-7.07,4.31-12.73,9.95-16.95,16.95-4.23,7-6.55,14.88-6.97,23.61h16.22c.41-5.69,2.01-10.82,4.78-15.4h0Z"/>
  <path d="M49.31,113.6c5.27,0,10.06-1.21,14.36-3.64s7.8-5.73,10.51-9.88c2.71-4.16,4.2-8.81,4.48-13.94h-16.22c-.41,3.19-1.87,5.86-4.37,8.01-2.5,2.15-5.41,3.23-8.74,3.23-3.88,0-7-1.31-9.37-3.96v18.72c1.53.41,3.05.76,4.58,1.04,1.53.28,3.12.41,4.78.41Z"/>
  <path d="M39.96,74.9c2.09-2.09,4.58-3.33,7.49-3.75v-16.23c-4.85.28-9.33,1.66-13.42,4.16-4.09,2.5-7.39,5.76-9.88,9.78-2.5,4.03-3.88,8.53-4.16,13.53h16.22c.41-2.91,1.66-5.41,3.75-7.49h0Z"/>
  <path d="M77.71,67h0c2.84,4.58,4.4,9.71,4.68,15.4h16.22c-.28-8.74-2.57-16.61-6.87-23.61-4.31-7-9.96-12.66-16.96-16.95-7-4.3-14.88-6.59-23.61-6.87v16.22c5.69.28,10.82,1.84,15.4,4.68s8.29,6.55,11.13,11.13Z"/>
  <rect x="164.79" y="86.14" width="16.22" height="47.44"/>
  <path d="M138.58,36.62V0h-16.22v68.87c2.63-4.99,6.38-9.09,11.24-12.28h0c4.85-3.19,10.27-5,16.23-5.41v-16.22c-1.94.14-3.85.35-5.73.62-1.87.28-3.71.62-5.51,1.04Z"/>
  <path d="M62.42,82.4h16.23c-.28-4.99-1.66-9.5-4.16-13.53-2.5-4.02-5.75-7.28-9.78-9.78-4.03-2.5-8.53-3.88-13.53-4.16v16.23c2.91.41,5.41,1.66,7.49,3.75,2.09,2.09,3.33,4.58,3.75,7.49Z"/>
  <rect x="102.37" width="16.22" height="82.39"/>
  <path d="M167.08,59.09c-4.03-2.5-8.53-3.88-13.53-4.16v16.23c2.91.41,5.41,1.66,7.49,3.75,2.09,2.09,3.33,4.58,3.75,7.49h16.23c-.28-4.99-1.66-9.5-4.16-13.53-2.5-4.02-5.75-7.28-9.78-9.78Z"/>
  <path d="M126.51,68.86c-2.5,4.03-3.88,8.53-4.16,13.53h16.22c.41-2.91,1.66-5.41,3.75-7.49h0c2.09-2.09,4.58-3.33,7.49-3.75v-16.23c-4.85.28-9.33,1.66-13.42,4.16-4.09,2.5-7.39,5.76-9.88,9.78Z"/>
  <path d="M254.05,113.6c5.27,0,10.06-1.21,14.36-3.64s7.8-5.73,10.51-9.88c2.71-4.16,4.2-8.81,4.48-13.94h-16.22c-.41,3.19-1.87,5.86-4.37,8.01-2.5,2.15-5.41,3.23-8.74,3.23-3.88,0-7-1.31-9.37-3.96v18.72c1.53.41,3.05.76,4.58,1.04,1.53.28,3.12.41,4.78.41Z"/>
  <path d="M236.88,55.87h0c4.65-2.84,9.74-4.4,15.29-4.68v-16.22c-8.6.28-16.44,2.57-23.51,6.87-7.07,4.31-12.73,9.95-16.95,16.95-4.23,7-6.55,14.88-6.97,23.61h16.22c.41-5.69,2.01-10.82,4.78-15.4,2.78-4.58,6.48-8.29,11.13-11.13Z"/>
  <path d="M282.45,67h0c2.84,4.58,4.4,9.71,4.68,15.4h16.22c-.28-8.74-2.57-16.61-6.87-23.61-4.31-7-9.96-12.66-16.96-16.95s-14.88-6.59-23.61-6.87v16.22c5.69.28,10.82,1.84,15.4,4.68,4.58,2.84,8.29,6.55,11.13,11.13Z"/>
  <path d="M282.18,101.95h-.03c-3.06,4.73-7,8.47-11.86,11.25-4.85,2.78-10.27,4.16-16.22,4.16-1.66,0-3.26-.11-4.78-.31-1.53-.21-3.06-.52-4.58-.93v16.65c1.53.28,3.08.49,4.68.62,1.59.14,3.16.21,4.68.21,9.02,0,17.17-2.11,24.45-6.35s13.18-9.91,17.69-17.06c4.5-7.15,6.89-15.16,7.18-24.04h-16.22c-.28,5.82-1.94,11.1-5,15.81Z"/>
  <path d="M267.16,82.4h16.23c-.28-4.99-1.66-9.5-4.16-13.53-2.5-4.02-5.75-7.28-9.78-9.78s-8.53-3.88-13.53-4.16v16.23c2.91.41,5.41,1.66,7.49,3.75,2.09,2.09,3.33,4.58,3.75,7.49Z"/>
  <path d="M475.78,82.37h16.23c-.28-5.13-1.77-9.78-4.48-13.94-2.71-4.16-6.21-7.45-10.51-9.88-4.31-2.43-9.09-3.64-14.36-3.64-1.66,0-3.26.14-4.78.41-1.53.28-3.06.62-4.58,1.04v18.72c2.36-2.63,5.47-3.96,9.37-3.96,3.33,0,6.24,1.08,8.74,3.23,2.5,2.15,3.96,4.82,4.37,8.01Z"/>
  <path d="M449.57,86.12h-16.22c.28,4.85,1.66,9.33,4.16,13.42,2.5,4.09,5.79,7.39,9.88,9.88,4.09,2.5,8.57,3.88,13.42,4.16v-16.22c-2.91-.41-5.41-1.66-7.49-3.75-2.08-2.09-3.33-4.58-3.75-7.49Z"/>
  <path d="M434.39,101.42h0c-2.78-4.66-4.37-9.75-4.78-15.3h-16.22c.41,8.6,2.74,16.44,6.97,23.51,4.23,7.07,9.88,12.73,16.95,16.95,7.07,4.23,14.91,6.55,23.51,6.97v-16.22c-5.55-.41-10.65-2.01-15.29-4.78-4.65-2.78-8.36-6.48-11.13-11.13Z"/>
  <path d="M177.17,41.83h0c-7-4.3-14.88-6.59-23.61-6.87v16.22c5.69.28,10.82,1.84,15.4,4.68,4.58,2.84,8.29,6.55,11.13,11.13,2.84,4.58,4.4,9.71,4.68,15.4h16.22c-.28-8.74-2.57-16.61-6.87-23.61-4.31-7-9.96-12.66-16.96-16.95Z"/>
  <rect x="184.77" y="86.14" width="16.22" height="47.44"/>
  <path d="M204.75,132.36c.32,6.56,2.09,12.54,5.32,17.93,2.82,4.7,6.45,8.58,10.91,11.63v-75.78h-16.22v46.22Z"/>
  <path d="M252.18,71.17h0v-16.23c-4.85.28-9.33,1.66-13.42,4.16-4.09,2.5-7.39,5.76-9.88,9.78-2.5,4.03-3.88,8.53-4.16,13.53h16.22c.41-2.91,1.66-5.41,3.75-7.49,2.09-2.08,4.58-3.33,7.49-3.75Z"/>
  <path d="M224.72,149.02v15.16c4.94,2.62,10.35,4.07,16.22,4.35v-82.39h-16.22v62.88Z"/>
  <path d="M.04,132.36c.32,6.56,2.09,12.54,5.32,17.93,2.82,4.7,6.45,8.58,10.91,11.63v-75.78H.04v46.22Z"/>
  <path d="M20.01,149.02v15.16c4.94,2.62,10.35,4.07,16.22,4.35v-82.39h-16.22v62.88Z"/>
  <path d="M472.05,93.61h0c-2.08,2.09-4.58,3.33-7.49,3.75v16.22c4.99-.28,9.5-1.66,13.53-4.16,4.02-2.5,7.28-5.79,9.78-9.88,2.5-4.09,3.88-8.57,4.16-13.42h-16.22c-.41,2.91-1.66,5.41-3.75,7.49Z"/>
  <path d="M462.67,51.16c5.96,0,11.37,1.38,16.22,4.16,4.85,2.78,8.81,6.53,11.86,11.24,3.05,4.72,4.71,9.99,5,15.81h16.22c-.28-8.87-2.67-16.89-7.18-24.04-4.51-7.15-10.4-12.83-17.69-17.06h.03c-7.28-4.22-15.43-6.34-24.45-6.34-1.53,0-3.09.07-4.68.21-1.6.14-3.16.35-4.68.62v16.65c1.53-.41,3.05-.73,4.58-.93,1.53-.21,3.12-.31,4.78-.31Z"/>
  <path d="M388.72,101.4h0c-2.85,4.66-6.55,8.37-11.13,11.14-4.58,2.78-9.71,4.37-15.4,4.78v16.22c8.74-.41,16.61-2.74,23.61-6.97,7-4.23,12.66-9.88,16.96-16.95,4.3-7.07,6.59-14.91,6.87-23.52h-16.22c-.28,5.55-1.84,10.65-4.68,15.29Z"/>
  <path d="M332.02,101.42h0c-2.78-4.66-4.37-9.75-4.78-15.3h-16.22c.41,8.6,2.74,16.44,6.97,23.51,4.23,7.07,9.88,12.73,16.95,16.95,7.07,4.23,14.91,6.55,23.51,6.97v-16.22c-5.55-.41-10.65-2.01-15.29-4.78-4.65-2.78-8.36-6.48-11.13-11.13Z"/>
  <path d="M495.78,86.11c-.28,5.55-1.84,10.65-4.68,15.29h0c-2.84,4.66-6.55,8.37-11.13,11.14-4.58,2.78-9.71,4.37-15.4,4.78v16.22c8.74-.41,16.61-2.74,23.61-6.97,7-4.23,12.66-9.88,16.96-16.95,4.3-7.07,6.59-14.91,6.87-23.52h-16.22Z"/>
  <path d="M362.18,97.36v16.22c4.99-.28,9.5-1.66,13.53-4.16,4.02-2.5,7.28-5.79,9.78-9.88,2.5-4.09,3.88-8.57,4.16-13.42h-16.22c-.41,2.91-1.66,5.41-3.75,7.49-2.08,2.09-4.58,3.33-7.49,3.75h0Z"/>
  <path d="M347.2,86.12h-16.22c.28,4.85,1.66,9.33,4.16,13.42,2.5,4.09,5.79,7.39,9.88,9.88,4.09,2.5,8.57,3.88,13.42,4.16v-16.22c-2.91-.41-5.41-1.66-7.49-3.75-2.09-2.09-3.33-4.58-3.75-7.49Z"/>
  <path d="M327.22,82.38c.41-5.82,2.11-11.09,5.1-15.81,2.98-4.71,6.93-8.46,11.86-11.24,4.93-2.77,10.3-4.16,16.13-4.16,1.66,0,3.29.11,4.89.31,1.59.21,3.08.52,4.48.93v-16.65c-1.53-.28-3.09-.49-4.68-.62-1.6-.13-3.16-.21-4.68-.21-8.88,0-17,2.11-24.34,6.35-7.35,4.23-13.25,9.91-17.69,17.06h0c-4.44,7.14-6.87,15.15-7.28,24.03h16.22Z"/>
  <path d="M369.66,75.09h0v-18.72c-1.38-.41-2.88-.76-4.48-1.04-1.6-.28-3.23-.41-4.89-.41-5.13,0-9.89,1.21-14.26,3.64s-7.87,5.73-10.51,9.88c-2.63,4.16-4.16,8.81-4.58,13.94h16.22c.41-3.19,1.87-5.86,4.37-8.01,2.5-2.15,5.41-3.23,8.74-3.23,3.88,0,7,1.32,9.37,3.96Z"/>
  <path d="M82.41,86.14c-.28,5.82-1.94,11.1-5,15.81-3.06,4.72-7,8.46-11.86,11.24-4.85,2.78-10.27,4.16-16.22,4.16-1.66,0-3.26-.11-4.78-.31-1.53-.21-3.06-.52-4.58-.93v16.65c1.53.28,3.08.49,4.68.62,1.59.14,3.16.21,4.68.21,9.02,0,17.17-2.11,24.45-6.35s13.18-9.91,17.69-17.06h-.03c4.5-7.14,6.89-15.15,7.18-24.03h-16.22Z"/>
  <path d="M389.64,8.95c-4.69-3.17-9.92-5.59-15.52-7.11-.23.06-.47.13-.7.19v80.34h16.22V8.95Z"/>
  <path d="M409.62,82.37v-47.88c-3.28-8.99-8.94-16.82-16.22-22.75v70.63h16.22Z"/>
  <path d="M429.59,82.37V14.18c-7.28,5.92-12.95,13.75-16.22,22.73v45.47h16.22Z"/>
  <path d="M449.56,4.08c-5.87,1.51-11.34,4.01-16.22,7.31v70.98h16.22V4.08Z"/>
  <rect x="102.37" y="86.14" width="16.22" height="47.44"/>
  <rect x="122.35" y="86.14" width="16.23" height="47.44"/>
</svg>