<svg xmlns="http://www.w3.org/2000/svg" viewBox="0 0 337.7 297.3">
    <path fill="currentColor" d="M44.6 103.9v20.8c1.7.5 3.4.9 5.1 1.2s3.5.5 5.3.5c5.9 0 11.2-1.4 16-4.1s8.7-6.4 11.7-11 4.7-9.8 5-15.5H69.6c-.5 3.6-2.1 6.5-4.9 8.9s-6 3.6-9.7 3.6-7.8-1.5-10.4-4.4ZM.1 95.8h18.1v91.7H.1zm23.4-21.3c3.1-5.1 7.2-9.2 12.4-12.4 5.2-3.2 10.8-4.9 17-5.2V38.8c-9.6.3-18.3 2.9-26.2 7.6-7.9 4.8-14.2 11.1-18.9 18.9C3.1 73.1.5 81.9 0 91.6h18.1c.5-6.3 2.2-12 5.3-17.1h.1Z"/>
    <path fill="currentColor" d="M44.6 83.3c2.3-2.3 5.1-3.7 8.3-4.2V61c-5.4.3-10.4 1.9-14.9 4.6-4.6 2.8-8.2 6.4-11 10.9s-4.3 9.5-4.6 15.1h18c.5-3.2 1.9-6 4.2-8.3Zm42-8.8c3.2 5.1 4.9 10.8 5.2 17.1h18.1c-.3-9.7-2.9-18.5-7.6-26.3-4.8-7.8-11.1-14.1-18.9-18.9s-16.6-7.3-26.3-7.6v18.1c6.3.3 12 2.1 17.1 5.2 5.1 3.2 9.2 7.3 12.4 12.4ZM22.4 95.8h18v91.7h-18z"/>
    <path fill="currentColor" d="M69.6 91.7h18.1c-.3-5.6-1.9-10.6-4.6-15.1-2.8-4.5-6.4-8.1-10.9-10.9-4.5-2.8-9.5-4.3-15.1-4.6v18.1c3.2.5 6 1.9 8.3 4.2s3.7 5.1 4.2 8.3ZM148.8 63c5.4-3.6 11.4-5.6 18.1-6V38.9c-2.2.2-4.3.4-6.4.7-2.1.3-4.1.7-6.1 1.2V.1h-18.1v76.6c2.9-5.6 7.1-10.1 12.5-13.7Zm34.7 32.8h18v52.8h-18z"/>
    <path fill="currentColor" d="M158.5 83.3c2.3-2.3 5.1-3.7 8.3-4.2V61c-5.4.3-10.4 1.9-14.9 4.6-4.6 2.8-8.2 6.4-11 10.9s-4.3 9.5-4.6 15.1h18.1c.5-3.2 1.9-6 4.2-8.3h-.1ZM114 0h18.1v91.7H114zm69.5 91.7h18c-.3-5.6-1.9-10.6-4.6-15.1-2.8-4.5-6.4-8.1-10.9-10.9s-9.5-4.3-15-4.6v18.1c3.2.5 6 1.9 8.3 4.2s3.7 5.1 4.2 8.3Z"/>
    <path fill="currentColor" d="M197.3 46.5c-7.8-4.8-16.5-7.3-26.3-7.6V57c6.3.3 12 2.1 17.1 5.2s9.2 7.3 12.4 12.4c3.2 5.1 4.9 10.8 5.2 17.1h18c-.3-9.7-2.9-18.5-7.6-26.3-4.8-7.8-11.1-14.1-18.9-18.9h.1Zm8.4 49.3h18v52.8h-18zm75-16.6V61.1c-5.4.3-10.4 1.9-14.9 4.6s-8.2 6.4-11 10.9-4.3 9.5-4.6 15.1h18c.5-3.2 1.9-6 4.2-8.3s5.1-3.7 8.3-4.2Zm-52.8 16.6h18v91.7h-18zm22.2 0h18v91.7h-18z"/>
    <path fill="currentColor" d="M263.7 62.1c5.2-3.2 10.8-4.9 17-5.2V38.8c-9.6.3-18.3 2.9-26.2 7.6-7.9 4.8-14.2 11.1-18.9 18.9-4.7 7.8-7.3 16.6-7.8 26.3h18c.5-6.3 2.2-12 5.3-17.1 3.1-5.1 7.2-9.2 12.4-12.4h.2Zm8.7 41.8v20.8c1.7.5 3.4.9 5.1 1.2s3.5.5 5.3.5c5.9 0 11.2-1.4 16-4.1s8.7-6.4 11.7-11 4.7-9.8 5-15.5h-18c-.5 3.6-2.1 6.5-4.9 8.9s-6 3.6-9.7 3.6-7.8-1.5-10.4-4.4h-.1Z"/>
    <path fill="currentColor" d="M314 113.4c-3.4 5.2-7.8 9.4-13.2 12.5s-11.4 4.6-18 4.6-3.6-.1-5.3-.4c-1.7-.2-3.4-.6-5.1-1v18.5c1.7.3 3.4.5 5.2.7 1.8.2 3.5.2 5.2.2 10 0 19.1-2.4 27.2-7.1 8.1-4.7 14.7-11 19.7-19 5-7.9 7.7-16.9 8-26.7h-18c-.3 6.5-2.2 12.4-5.6 17.6l-.1.1Zm.4-38.9c3.2 5.1 4.9 10.8 5.2 17.1h18c-.3-9.7-2.9-18.5-7.6-26.3-4.8-7.8-11.1-14.1-18.9-18.9s-16.5-7.3-26.3-7.6v18.1c6.3.3 12 2.1 17.1 5.2s9.2 7.3 12.4 12.4h.1Z"/>
    <path fill="currentColor" d="M297.4 91.7h18c-.3-5.6-1.9-10.6-4.6-15.1-2.8-4.5-6.4-8.1-10.9-10.9s-9.5-4.3-15-4.6v18.1c3.2.5 6 1.9 8.3 4.2s3.7 5.1 4.2 8.3ZM114 95.8h18.1v144.4H114zm22.3 0h18.1v144.4h-18.1zm47.2 144.5h18c-.3-5.7-2-10.9-5-15.5s-6.9-8.3-11.7-11c-4.8-2.7-10.1-4-16-4s-3.6.2-5.3.5-3.4.7-5.1 1.2v20.8c2.6-2.9 6.1-4.4 10.4-4.4s6.9 1.2 9.7 3.6 4.4 5.4 4.9 8.9l.1-.1Zm-29.2 4.1h-18.1c.3 5.4 1.9 10.4 4.6 14.9s6.4 8.2 11 11 9.5 4.3 14.9 4.6v-18c-3.2-.5-6-1.9-8.3-4.2s-3.7-5.1-4.2-8.3h.1Z"/>
    <path fill="currentColor" d="M137.4 261.4c-3.1-5.2-4.9-10.8-5.3-17H114c.5 9.6 3.1 18.3 7.8 26.2 4.7 7.9 11 14.2 18.9 18.9 7.9 4.7 16.6 7.3 26.2 7.8v-18c-6.2-.5-11.9-2.2-17-5.3-5.2-3.1-9.3-7.2-12.4-12.4l-.1-.2Zm41.9-8.6c-2.3 2.3-5.1 3.7-8.3 4.2v18c5.5-.3 10.6-1.9 15-4.6 4.5-2.8 8.1-6.4 10.9-11s4.3-9.5 4.6-14.9h-18c-.5 3.2-1.9 6-4.2 8.3Zm16.8-58.2c-8.1-4.7-17.2-7.1-27.2-7.1s-3.4 0-5.2.2-3.5.4-5.2.7v18.5c1.7-.5 3.4-.8 5.1-1s3.5-.4 5.3-.4c6.6 0 12.6 1.5 18 4.6s9.8 7.3 13.2 12.5c3.4 5.2 5.2 11.1 5.6 17.6h18c-.3-9.9-3-18.8-8-26.7-5-8-11.6-14.3-19.7-19l.1.1Z"/>
    <path fill="currentColor" d="M200.5 261.4c-3.2 5.2-7.3 9.3-12.4 12.4s-10.8 4.9-17.1 5.3v18c9.7-.5 18.5-3 26.3-7.8 7.8-4.7 14.1-11 18.9-18.9s7.3-16.6 7.6-26.2h-18c-.3 6.2-2 11.9-5.2 17l-.1.2Zm-113.9 0c-3.2 5.2-7.3 9.3-12.4 12.4-5.1 3.1-10.8 4.9-17.1 5.3v18c9.7-.5 18.5-3 26.3-7.8 7.8-4.7 14.1-11 18.9-18.9 4.8-7.9 7.3-16.6 7.6-26.2H91.8c-.3 6.2-2.1 11.9-5.2 17v.2Zm-63.1 0c-3.1-5.2-4.9-10.8-5.3-17H.1c.5 9.6 3.1 18.3 7.8 26.2 4.7 7.9 11 14.2 18.9 18.9 7.9 4.7 16.6 7.3 26.2 7.8v-18c-6.2-.5-11.9-2.2-17-5.3-5.2-3.1-9.3-7.2-12.4-12.4l-.1-.2Z"/>
    <path fill="currentColor" d="M40.4 244.4H22.3c.3 5.4 1.8 10.4 4.6 14.9s6.4 8.2 11 11c4.6 2.8 9.5 4.3 14.9 4.6v-18c-3.2-.5-6-1.9-8.3-4.2-2.3-2.3-3.7-5.1-4.2-8.3h.1Zm16.7 12.5v18c5.6-.3 10.6-1.9 15.1-4.6 4.5-2.8 8.1-6.4 10.9-11s4.3-9.5 4.6-14.9H69.6c-.5 3.2-1.9 6-4.2 8.3s-5.1 3.7-8.3 4.2ZM8.3 213.5c-4.9 8-7.6 16.9-8.1 26.7h18c.5-6.5 2.3-12.3 5.7-17.6 3.3-5.2 7.7-9.4 13.2-12.5s11.5-4.6 17.9-4.6 3.7.1 5.4.4c1.8.2 3.4.6 5 1v-18.5c-1.7-.3-3.4-.5-5.2-.7-1.8-.1-3.5-.2-5.2-.2-9.9 0-18.9 2.4-27.1 7.1s-14.7 11-19.7 19l.1-.1Z"/>
    <path fill="currentColor" d="M65.4 232.2v-20.8c-1.5-.5-3.2-.9-5-1.2s-3.6-.5-5.4-.5c-5.7 0-11 1.4-15.9 4-4.9 2.7-8.8 6.4-11.7 11-2.9 4.6-4.6 9.8-5.1 15.5h18.1c.5-3.5 2.1-6.5 4.9-8.9s6-3.6 9.7-3.6 7.8 1.5 10.4 4.4v.1Zm22.3-89.4c-1.1.8-2.3 1.5-3.4 2.1-4.6 2.7-9.5 4.6-14.6 5.9v89.4h18.1v-97.4h-.1Zm4.1-3v100.5h18.1V115.7c-1.2 3.1-2.8 6.2-4.6 9.1-3.7 5.8-8.2 10.9-13.4 15.1l-.1-.1Zm10.1-17.2c5-7.9 7.7-16.9 8-26.7H91.8c-.3 6.5-2.2 12.4-5.6 17.6-3.4 5.2-7.8 9.4-13.2 12.5s-11.4 4.6-18.1 4.6-3.6-.1-5.3-.4c-1.7-.2-3.4-.6-5.1-1v18.5c1.7.3 3.4.5 5.2.7 1.8.2 3.5.2 5.2.2 10 0 19.1-2.4 27.2-7.1 8.1-4.7 14.7-11 19.7-19l.1.1Z"/>
</svg>
